<svg id="Layer_1" xmlns="http://www.w3.org/2000/svg" viewBox="0 0 856.3 890.9"><style>.st0{fill:#3A3A3A;} .st1{fill:#E5E5E5;} .st2{opacity:0.5;fill:none;stroke:#565656;stroke-width:5;stroke-linecap:round;stroke-miterlimit:10;} .st3{fill:none;stroke:#4A494A;stroke-width:5;stroke-miterlimit:10;} .st4{fill:none;stroke:#4A494A;stroke-width:5;stroke-linecap:round;stroke-miterlimit:10;} .st5{opacity:0.3;fill:none;stroke:#565656;stroke-width:5;stroke-linecap:round;stroke-miterlimit:10;} .st6{fill:#FFFFFF;stroke:#4ABAD2;stroke-width:5;stroke-miterlimit:10;} .st7{opacity:0.6;fill:none;stroke:#4ABAD2;stroke-width:5;stroke-linecap:round;stroke-miterlimit:10;} .st8{fill:#FFFFFF;} .st9{fill:none;stroke:#4ABAD2;stroke-width:5;stroke-miterlimit:10;} .st10{fill:none;stroke:#4ABAD2;stroke-width:5;stroke-miterlimit:10;stroke-dasharray:12.022,12.022;} .st11{fill:#FFFFFF;stroke:#4ABAD2;stroke-width:5;stroke-miterlimit:10;stroke-dasharray:12;} .st12{fill:#FFFFFF;stroke:#B4B4B5;stroke-width:5;stroke-miterlimit:10;} .st13{opacity:0.3;fill:none;stroke:#B4B4B5;stroke-width:5;stroke-linecap:round;stroke-miterlimit:10;} .st14{fill:none;stroke:#B4B4B5;stroke-width:5;stroke-miterlimit:10;} .st15{fill:none;stroke:#B4B4B5;stroke-width:5;stroke-miterlimit:10;stroke-dasharray:12.6233,12.6233;} .st16{fill:#FFFFFF;stroke:#F26522;stroke-width:5;stroke-miterlimit:10;} .st17{opacity:0.6;fill:none;stroke:#F26522;stroke-width:5;stroke-linecap:round;stroke-miterlimit:10;} .st18{fill:none;stroke:#F26522;stroke-width:5;stroke-linecap:round;stroke-miterlimit:10;stroke-dasharray:12;}</style><path class="st0" d="M581.4 46H115.1v844.9h672.4V46H581.4z"/><path class="st2" d="M286.3 164.2h437.5M182.1 198.9h502.5"/><path class="st3" d="M184.2 101h54.4v66.5h-54.4z"/><path class="st2" d="M540 131.3h183.8"/><circle class="st4" cx="211.5" cy="125.7" r="18.3"/><path class="st3" d="M187.2 167.4v-6c0-9.6 7.8-17.4 17.4-17.4h13.9c9.6 0 17.3 7.7 17.3 17.3v6"/><path class="st2" d="M283.4 487.3h333.1M186.7 709.2h108.7M314.1 709.2h129.2M186.7 682.7h230.5M186.7 737.1h230.5M484.8 738.1h91.4M179.2 583.9h293.5M521.7 583.9h202.1M548.9 611.9h125.5M179.2 557.3h264.4M179.2 611.7h313M483.7 683h47.5M484.5 709h68.3M605.4 709h79.2M589.2 682.3h113M545.4 260.6h191M545.4 289.3h153.5M475 529.7h191.8M497 557.3h226.8"/><path class="st5" d="M242.9 417.1h16.6"/><path class="st2" d="M274.9 529.7h142.3M275.9 417.7h47M275.9 436.1h18.5M275.1 454.5h54.1M187.8 825.3h173.1M396.6 825h173.1M629.3 738.1h100.6"/><g><path class="st6" d="M487.2 799.2h309.6v50.2H487.2z"/><path class="st7" d="M514.5 824h103.2M637.3 824.3h135.6"/></g><g><path class="st6" d="M42.2 226.5h541.6v91.2H42.2z"/><path class="st7" d="M77.2 259.9h103.5M405.5 289.3H540M480.2 259.9h82.9M205.6 259.9h252M77.2 288.6h305.5"/><path class="st6" d="M282.1 102.2h237.4v50.2H282.1z"/><path class="st7" d="M303.1 127H494"/><path class="st6" d="M548.9 2.5h195.2v73.1H548.9z"/><path class="st7" d="M565.9 26h78.2M658.4 26h69.4"/><path class="st8" d="M398.5 154.4v72.1"/><path class="st9" d="M398.5 154.4v6"/><path class="st10" d="M398.5 172.4v42.1"/><path class="st9" d="M398.5 220.5v6"/><path class="st11" d="M519.5 126.7l127-51.1"/><path class="st7" d="M565.9 51.3h146.5"/></g><g><path class="st12" d="M2.5 245.1h134.1v30.3H2.5z"/><path class="st13" d="M22.3 261.4h94"/></g><g><path class="st12" d="M166.1 399.5h92.5v72.7h-92.5z"/><path class="st13" d="M182.9 417.7h42M182.9 436.1h58.7M182.2 454.5h48.4"/><path class="st12" d="M179.9 523.1h295v54.8h-295z"/><path class="st13" d="M199.5 541.3h48.8M199.5 559.7h68.2M267.7 541.3h123.8M288.8 559.6h143.5"/><path class="st8" d="M327.5 523.1L212.3 473"/><path class="st14" d="M327.5 523.1l-5.5-2.4"/><path class="st15" d="M310.4 515.7l-86.8-37.8"/><path class="st14" d="M217.8 475.4l-5.5-2.4"/></g><g><path class="st12" d="M382.7 787.2h131.6v38H382.7z"/><path class="st13" d="M406.7 807.1h83.5"/></g><g><path class="st16" d="M298.6 361.5h555.2v126.3H298.6z"/><path class="st17" d="M333.4 395.8h103.5M333.4 453.2h186.1M661.7 425.2h134.5M736.4 395.8h82.9M461.8 395.8h252M333.4 424.5h305.5M542.9 453.3h283.3"/><path class="st16" d="M432.3 545.1h290.5v85.8H432.3z"/><path class="st17" d="M462.1 601.8h98.3M577.4 601.8h116.9M462.1 575.2h208.5"/><path class="st18" d="M576.2 487.3v57.8"/></g></svg>